<?xml version="1.0" standalone="no"?>
<!DOCTYPE svg PUBLIC "-//W3C//DTD SVG 20010904//EN"
 "http://www.w3.org/TR/2001/REC-SVG-20010904/DTD/svg10.dtd">
<svg version="1.0" xmlns="http://www.w3.org/2000/svg"
 width="490.000000pt" height="490.000000pt" viewBox="0 0 490.000000 490.000000"
 preserveAspectRatio="xMidYMid meet">
<metadata>
Created by potrace 1.11, written by Peter Selinger 2001-2013
</metadata>
<g transform="translate(0.000000,490.000000) scale(0.100000,-0.100000)"
fill="#000000" stroke="none">
<path d="M2000 4803 c1 -27 1 -54 1 -60 -1 -10 -47 -13 -196 -13 l-195 0 0
-65 0 -65 -130 0 -130 0 0 -65 0 -65 -65 0 c-73 0 -70 4 -65 -92 1 -37 -8 -45
-44 -39 -5 1 -43 2 -85 1 -42 -1 -89 -1 -104 0 -25 0 -28 -3 -27 -27 1 -16 2
-45 1 -65 l-1 -38 -65 0 -65 0 0 -65 0 -65 -65 0 -65 0 0 -130 0 -130 -65 0
-65 0 0 -65 0 -65 -66 0 -65 0 1 -47 c1 -27 1 -85 1 -130 l-1 -83 -65 0 -65 0
0 -195 0 -195 -65 0 -65 0 0 -455 0 -455 65 0 65 0 0 -195 0 -195 65 0 65 0 1
-32 c0 -18 0 -77 -1 -130 l-1 -98 65 0 66 0 0 -65 0 -65 65 0 65 0 0 -130 0
-130 65 0 65 0 0 -65 0 -65 48 -1 c26 -1 55 -1 65 0 14 2 17 -6 18 -41 1 -24
0 -53 -1 -65 l-1 -23 585 0 586 0 0 -195 0 -195 65 0 65 0 0 -65 0 -65 65 0
65 0 0 -65 0 -66 54 2 c29 1 58 -1 65 -5 6 -4 11 -33 11 -67 l0 -59 65 0 65 0
0 65 0 64 63 3 62 3 3 62 3 63 64 0 65 0 0 65 0 65 64 0 64 0 4 35 c2 19 1 40
-2 46 -4 5 -4 30 0 54 4 25 5 47 2 50 -4 4 -4 26 -3 160 l1 45 455 0 455 0 0
65 0 65 65 0 65 0 0 65 0 65 65 0 65 0 0 130 0 130 65 0 65 0 0 65 0 65 65 0
65 0 0 130 0 130 48 1 c26 1 55 1 65 0 19 -3 18 -17 17 227 l-1 162 66 0 65 0
0 455 0 455 -66 0 -65 0 1 93 c1 50 1 138 1 195 l-1 102 -65 0 -65 0 0 130 0
130 -65 0 -65 0 0 65 0 65 -65 0 -65 0 0 130 0 130 -64 0 c-36 0 -68 5 -71 10
-3 6 -3 10 2 10 4 0 6 25 5 55 l-4 55 -64 0 -64 0 0 64 c0 35 -4 66 -10 68 -5
2 -43 1 -82 -2 -40 -3 -94 -4 -120 -2 l-48 3 0 65 0 64 -65 0 -65 0 0 65 0 65
-130 0 -130 0 0 65 0 65 -195 0 -195 0 0 60 0 60 -456 0 -455 0 1 -47z"/>
</g>
</svg>
